<?xml version="1.0" standalone="no"?>
<!DOCTYPE svg PUBLIC "-//W3C//DTD SVG 20010904//EN"
 "http://www.w3.org/TR/2001/REC-SVG-20010904/DTD/svg10.dtd">
<svg version="1.0" xmlns="http://www.w3.org/2000/svg"
 width="1400.000000pt" height="461.000000pt" viewBox="0 0 1400.000000 461.000000"
 preserveAspectRatio="xMidYMid meet">
<metadata>
Created by potrace 1.16, written by Peter Selinger 2001-2019
</metadata>
<g transform="translate(0.000000,461.000000) scale(0.100000,-0.100000)"
fill="#000000" stroke="none">
<path d="M1410 4539 c-140 -39 -379 -103 -530 -144 -151 -41 -364 -98 -472
-127 -151 -41 -194 -56 -185 -65 7 -6 62 -23 122 -38 61 -15 214 -55 340 -89
711 -195 983 -265 1018 -266 9 0 59 11 110 25 50 13 126 33 167 44 41 10 156
42 255 69 100 28 196 54 215 57 19 3 120 30 225 60 104 29 222 61 260 71 181
44 239 61 242 70 2 5 -86 33 -194 63 -109 29 -297 80 -418 113 -121 33 -296
80 -390 104 -93 24 -233 61 -310 84 -77 22 -153 40 -170 39 -16 0 -145 -32
-285 -70z"/>
<path d="M0 4007 c0 -7 26 -55 58 -107 32 -52 98 -162 147 -245 49 -82 110
-184 135 -225 26 -41 65 -106 87 -145 22 -38 68 -117 103 -175 153 -252 201
-332 271 -452 41 -70 79 -127 85 -127 7 -1 14 9 18 22 3 12 41 81 85 152 198
324 313 515 373 619 22 38 59 99 83 136 24 38 53 86 64 107 l20 39 -222 61
c-122 34 -260 71 -307 83 -47 12 -170 45 -275 74 -104 29 -223 60 -263 70 -40
10 -159 42 -264 72 -106 30 -193 54 -195 54 -2 0 -3 -6 -3 -13z"/>
<path d="M3330 4005 c-49 -16 -385 -108 -540 -148 -52 -14 -180 -48 -285 -76
-104 -29 -298 -81 -430 -117 -132 -36 -246 -67 -252 -69 -10 -4 -13 -232 -13
-1100 0 -614 4 -1095 9 -1095 8 0 103 145 131 200 7 14 41 70 74 125 86 139
180 295 236 390 26 44 125 208 220 365 94 157 193 321 219 365 57 96 121 201
215 355 39 63 74 121 77 130 4 9 39 66 78 128 39 62 71 115 71 118 0 2 34 59
75 125 41 67 75 123 75 125 0 2 25 44 55 93 30 49 55 92 55 95 0 9 -20 6 -70
-9z"/>
<path d="M1511 3117 c-30 -50 -82 -137 -117 -192 -34 -55 -69 -115 -78 -133
-9 -18 -45 -77 -79 -132 -34 -55 -96 -156 -137 -225 -105 -175 -323 -539 -445
-740 -38 -63 -104 -172 -145 -241 -41 -69 -109 -181 -150 -250 -41 -68 -109
-180 -150 -249 -41 -69 -105 -175 -142 -235 -66 -107 -77 -130 -60 -130 5 0
88 23 186 50 97 28 261 72 364 99 183 47 288 76 780 210 l242 66 0 1097 c0
604 -3 1098 -7 1098 -5 0 -32 -42 -62 -93z"/>
<path d="M5007 2513 c-4 -3 -7 -206 -7 -450 l0 -443 340 0 340 0 0 60 0 60
-275 0 -275 0 0 390 0 390 -58 0 c-32 0 -62 -3 -65 -7z"/>
<path d="M7195 2468 c-12 -29 -55 -123 -95 -208 -40 -85 -93 -202 -120 -260
-26 -58 -66 -142 -88 -187 -34 -67 -82 -179 -82 -191 0 -2 30 -2 68 0 l67 3
56 130 55 130 215 3 214 2 48 -107 c76 -172 64 -158 131 -161 32 -2 65 -1 72
2 10 4 -3 40 -50 138 -93 193 -209 442 -246 528 -18 41 -50 110 -71 153 l-39
77 -56 0 -55 0 -24 -52z m179 -333 l66 -140 -161 -3 c-89 -1 -164 -1 -166 1
-3 4 4 21 108 250 l53 117 17 -42 c9 -24 46 -106 83 -183z"/>
<path d="M9007 2513 c-4 -3 -7 -206 -7 -450 l0 -443 65 0 65 0 0 180 0 180
175 0 175 0 29 -57 c16 -32 53 -99 83 -150 29 -50 61 -105 70 -122 17 -30 19
-31 88 -31 41 0 70 4 70 10 0 6 -12 29 -27 53 -15 23 -62 103 -104 177 l-78
135 32 13 c55 24 114 80 141 134 47 94 28 199 -52 281 -53 55 -101 77 -195 87
-93 11 -520 13 -530 3z m567 -134 c22 -6 52 -24 68 -39 25 -25 28 -36 28 -90
0 -72 -20 -108 -74 -134 -28 -13 -71 -16 -250 -16 l-216 0 0 145 0 145 203 0
c115 0 219 -5 241 -11z"/>
<path d="M11125 2508 c-3 -7 -4 -209 -3 -448 l3 -435 373 -3 372 -2 0 60 0 60
-310 0 -310 0 0 145 0 145 180 0 180 0 0 60 0 60 -180 0 -180 0 0 120 0 120
295 0 295 0 0 65 0 65 -355 0 c-275 0 -357 -3 -360 -12z"/>
<path d="M13158 2515 c-5 -5 -8 -208 -8 -452 l0 -443 218 0 c246 0 323 9 402
47 71 35 152 119 193 202 31 64 32 69 32 201 0 128 -2 138 -28 192 -32 66
-105 150 -158 184 -90 56 -145 66 -404 71 -132 3 -243 2 -247 -2z m526 -144
c23 -8 61 -35 91 -65 61 -61 87 -130 87 -236 0 -154 -61 -254 -182 -301 -46
-18 -83 -22 -227 -27 l-173 -5 0 327 0 328 183 -5 c106 -2 198 -9 221 -16z"/>
<path d="M2444 1968 c-38 -62 -77 -129 -88 -148 -10 -19 -45 -76 -77 -127 -33
-51 -59 -95 -59 -97 0 -5 -64 -111 -227 -376 -95 -155 -125 -212 -114 -219 10
-7 268 -78 706 -195 154 -41 381 -103 505 -137 309 -84 300 -82 306 -76 3 3
-19 46 -50 96 -31 50 -56 93 -56 96 0 3 -28 51 -63 108 -105 170 -188 308
-227 377 -21 36 -66 112 -101 170 -34 58 -93 155 -129 215 -37 61 -95 157
-130 215 -35 58 -77 129 -93 158 -16 28 -30 52 -31 52 -2 0 -34 -51 -72 -112z"/>
<path d="M1515 756 c-174 -46 -461 -123 -820 -222 -126 -34 -280 -75 -341 -90
-121 -29 -146 -39 -127 -51 6 -5 89 -29 185 -55 536 -144 742 -199 818 -218
47 -12 164 -44 260 -71 96 -27 190 -49 209 -49 18 0 122 25 230 56 108 30 248
68 311 83 105 26 204 53 758 204 100 27 182 53 182 57 0 4 -46 20 -102 35 -57
15 -218 58 -358 96 -140 38 -268 72 -285 75 -16 3 -145 37 -285 75 -371 102
-438 119 -457 118 -10 -1 -90 -20 -178 -43z"/>
</g>
</svg>
